# xmcd
#
# Track frame offsets:
#	150
#	20818
#	39261
#	57448
#	69247
#	91391
#	108685
#	129014
#	143034
#	158694
#	183734
#	205202
#	231688
#
# Disc length: 3246 seconds
#
# Revision: 1
# Processed by: cddbd v1.5.2PL0 Copyright (c) Steve Scherf et al.
# Submitted via: audiograbber 1.83.01
#
DISCID=b70cac0d
DTITLE=Steafán Hanvey - Steafán Hanvey and the Honeymoon Junkies
DYEAR=2006
DGENRE=
TTITLE0=Rooms
TTITLE1=My Woman (Ode to You)
TTITLE2=Love's a Decision
TTITLE3=Dublin Sky
TTITLE4=Fair Weather Friend
TTITLE5=Desperation
TTITLE6=Everyone's Happy
TTITLE7=Look at You
TTITLE8=Hundred Days of Snow
TTITLE9=When You Go
TTITLE10=Forgive
TTITLE11=Winding Down
TTITLE12=Show Me
EXTD=
EXTT0=
EXTT1=
EXTT2=
EXTT3=
EXTT4=
EXTT5=
EXTT6=
EXTT7=
EXTT8=
EXTT9=
EXTT10=
EXTT11=
EXTT12=
PLAYORDER=
